<?xml version="1.0" encoding="UTF-8" standalone="no"?>
<svg
   xmlns:dc="http://purl.org/dc/elements/1.1/"
   xmlns:cc="http://creativecommons.org/ns#"
   xmlns:rdf="http://www.w3.org/1999/02/22-rdf-syntax-ns#"
   xmlns:svg="http://www.w3.org/2000/svg"
   xmlns="http://www.w3.org/2000/svg"
   xmlns:sodipodi="http://sodipodi.sourceforge.net/DTD/sodipodi-0.dtd"
   xmlns:inkscape="http://www.inkscape.org/namespaces/inkscape"
   width="64mm"
   height="64mm"
   viewBox="0 0 64 64"
   version="1.1"
   id="svg912"
   inkscape:version="1.0.2-2 (e86c870879, 2021-01-15)"
   sodipodi:docname="ControllerIcon.svg">
  <defs
     id="defs906" />
  <sodipodi:namedview
     id="base"
     pagecolor="#ffffff"
     bordercolor="#666666"
     borderopacity="1.0"
     inkscape:pageopacity="0.0"
     inkscape:pageshadow="2"
     inkscape:zoom="1.23"
     inkscape:cx="116.71533"
     inkscape:cy="112.60665"
     inkscape:document-units="mm"
     inkscape:current-layer="layer1"
     inkscape:document-rotation="0"
     showgrid="false"
     inkscape:window-width="1617"
     inkscape:window-height="1228"
     inkscape:window-x="1750"
     inkscape:window-y="216"
     inkscape:window-maximized="0" />
  <metadata
     id="metadata909">
    <rdf:RDF>
      <cc:Work
         rdf:about="">
        <dc:format>image/svg+xml</dc:format>
        <dc:type
           rdf:resource="http://purl.org/dc/dcmitype/StillImage" />
        <dc:title></dc:title>
      </cc:Work>
    </rdf:RDF>
  </metadata>
  <g
     inkscape:label="Capa 1"
     inkscape:groupmode="layer"
     id="layer1">
    <path
       id="path847-8"
       style="fill:#000000;stroke-width:0.999998"
       d="m 24.433612,14.309857 -1.690271,0.06414 c -1.789178,0.06787 -3.029951,0.329382 -4.66404,0.983552 -1.311292,0.524946 -2.03667,1.302472 -2.03667,2.182874 0,0.214199 -0.205986,0.533602 -0.644701,1.000057 -1.14058,1.2127 -1.786974,2.352185 -2.867183,5.054774 -2.8958987,7.245296 -4.8847144,15.569979 -4.6626254,19.51592 0.08283,1.471641 0.307726,2.381969 0.875789,3.545606 0.7325827,1.500631 1.8855094,2.555035 3.3732274,3.084599 0.341935,0.121736 0.801322,0.193295 1.055946,0.164598 0.997557,-0.112478 1.51067,-0.513556 4.801282,-3.75312 1.759691,-1.73239 3.471094,-3.346128 3.80311,-3.586163 0.80391,-0.58121 1.928851,-1.143117 2.596478,-1.296941 0.670017,-0.154367 14.481022,-0.168668 16.660523,-0.0172 2.825494,0.196343 3.367305,0.541382 7.666581,4.882638 3.657868,3.693589 3.935413,3.899474 5.095331,3.77976 0.992839,-0.10247 1.902705,-0.603081 2.877327,-1.583211 1.33722,-1.344772 1.937896,-2.821044 2.069922,-5.087081 0.218388,-3.748192 -1.351028,-10.801502 -3.947657,-17.740993 -1.529169,-4.086692 -2.262993,-5.54922 -3.387145,-6.750942 -0.50203,-0.536677 -0.715677,-0.860881 -0.715677,-1.085657 0,-1.278337 -1.386611,-2.233041 -4.346408,-2.992638 -0.804489,-0.206464 -1.391467,-0.264955 -2.716503,-0.270705 l -1.690271,-0.0075 -0.937099,0.522317 -0.936862,0.522313 -6.755656,-0.0027 -6.755659,-0.0027 -1.060661,-0.56287 z m 19.027795,2.365149 c 0.206204,0.005 0.430607,0.03117 0.71214,0.0698 1.367373,0.187642 3.14366,0.64357 4.354425,1.117495 0.861475,0.337208 1.046419,0.465013 1.453047,1.003598 1.435715,1.901582 4.39297,9.608989 5.766445,15.028971 0.929834,3.669304 1.236953,5.524241 1.309202,7.908044 0.06775,2.235003 -0.05282,3.033656 -0.62701,4.156585 -0.650154,1.271502 -1.942678,2.299202 -2.894777,2.301484 -0.466551,9.13e-4 -0.552014,-0.07422 -3.433831,-3.025648 -3.679685,-3.768584 -4.965391,-4.768222 -6.893366,-5.359675 -0.905404,-0.277755 -7.133125,-0.456795 -13.70326,-0.394038 -5.535745,0.05288 -5.65211,0.06776 -7.268303,0.933567 -1.440188,0.771521 -2.137603,1.361076 -5.287989,4.4695 -1.660086,1.637977 -3.192317,3.067934 -3.404827,3.177742 -0.541488,0.27979 -0.851659,0.24929 -1.545245,-0.151625 C 10.874097,47.261122 10.060951,46.078712 9.7081283,44.580495 9.4011006,43.276755 9.5006053,40.390448 9.9312023,38.111347 11.030088,32.295113 13.43381,25.026281 15.84903,20.215663 l 0.978368,-1.948482 1.207334,-0.445438 c 1.594409,-0.588227 3.884959,-1.098411 5.010444,-1.115842 0.805589,-0.0125 1.012683,0.03532 1.878209,0.43412 0.535085,0.246529 1.244351,0.506575 1.576138,0.577728 0.399295,0.08562 2.825608,0.117597 7.176575,0.09433 l 6.573608,-0.03514 0.784771,-0.345929 c 1.352375,-0.596071 1.808321,-0.771046 2.42693,-0.756001 z m -9.958395,2.245128 c -0.950104,-0.0079 -1.884447,0.718146 -1.885519,1.669519 -9.13e-4,0.714891 0.584791,1.497824 1.281855,1.714086 0.464789,0.1442 1.108573,0.034 1.522607,-0.260807 0.987983,-0.703502 0.909031,-2.391223 -0.137242,-2.932267 -0.2484,-0.128453 -0.515668,-0.188327 -0.781701,-0.190531 z m 12.564542,0.972939 c -1.175287,0.04075 -2.294995,1.168415 -1.677061,2.565353 0.260703,0.589359 0.641544,0.907849 1.264871,1.057835 1.571757,0.378195 2.866124,-1.30024 2.063081,-2.675238 -0.404432,-0.692491 -1.035261,-0.969301 -1.650891,-0.94795 z M 20.491852,21.4935 c -0.291057,0.0089 -0.587758,0.05437 -0.884988,0.140778 -0.999204,0.290477 -2.012125,1.303726 -2.302661,2.303136 -0.518877,1.78487 0.408749,3.749004 2.044687,4.329191 0.273228,0.0969 0.849989,0.180381 1.281613,0.185583 1.817136,0.02186 3.304931,-1.320404 3.468968,-3.129404 C 24.294678,23.17 22.529247,21.431427 20.491852,21.4935 Z m 28.959544,1.789073 c -0.857372,0.0052 -1.646926,0.610902 -1.748986,1.673059 -0.08282,0.861926 0.45691,1.693347 1.254262,1.932205 h 2.37e-4 c 0.191279,0.05725 0.458475,0.108905 0.593763,0.114604 0.375037,0.01583 1.278738,-0.491237 1.557744,-0.873904 0.344176,-0.472004 0.344098,-1.505678 -2.33e-4,-1.966872 -0.451785,-0.60512 -1.070161,-0.882656 -1.656787,-0.879092 z m -6.843847,0.01296 c -0.275008,0.01214 -0.55781,0.09109 -0.839945,0.238635 -0.714317,0.373549 -1.004968,0.917706 -0.941581,1.762192 0.03956,0.526894 0.118834,0.711063 0.456996,1.059957 0.22511,0.232251 0.573753,0.472529 0.774628,0.533867 0.801058,0.244608 1.632009,-0.0501 2.168723,-0.76897 0.344911,-0.461969 0.344911,-1.497354 0,-1.959324 -0.445624,-0.596862 -1.013801,-0.893029 -1.618821,-0.866357 z m -5.738382,0.940399 c -1.004282,0 -1.536378,1.268074 -0.828861,1.975601 0.243509,0.243508 0.438401,0.318335 0.828861,0.318335 0.390456,0 0.585116,-0.07483 0.828629,-0.318335 0.707518,-0.707522 0.17565,-1.975601 -0.828629,-1.975601 z m -7.027774,0.03751 c -0.317167,0.0069 -0.629803,0.128152 -0.830518,0.361493 -0.402174,0.467564 -0.399942,1.193645 0.005,1.598538 0.228569,0.228574 0.423283,0.29641 0.850792,0.29641 0.427518,0 0.621986,-0.06784 0.850559,-0.29641 0.447938,-0.447951 0.440103,-1.167342 -0.0177,-1.635326 -0.219278,-0.22416 -0.540935,-0.331641 -0.858102,-0.324705 z m 16.29219,2.386609 c -0.86408,-0.01031 -1.729031,0.548921 -1.896604,1.540769 -0.127732,0.756056 0.371921,1.657585 1.083541,1.95555 0.38351,0.160592 1.24988,0.131798 1.605611,-0.05329 0.64696,-0.336615 0.911281,-0.747605 0.959029,-1.491957 0.03477,-0.542454 -0.0093,-0.777932 -0.202791,-1.086132 -0.36675,-0.584203 -0.957574,-0.857883 -1.548786,-0.864942 z m -19.017185,2.284504 c -1.319259,0 -1.415085,0.101736 -1.415085,1.499267 v 1.123386 l -1.086128,0.06202 c -0.599197,0.03418 -1.16753,0.129562 -1.267705,0.212703 -0.134791,0.111861 -0.181572,0.40738 -0.181572,1.147201 0,1.267002 0.05706,1.32081 1.436779,1.350471 l 1.03826,0.0224 0.06107,1.165125 c 0.05152,0.97939 0.09967,1.194274 0.301834,1.34646 0.295643,0.222545 1.994849,0.166263 2.286394,-0.07569 0.145236,-0.120536 0.187938,-0.409739 0.187938,-1.275955 V 34.40162 l 1.080706,-0.04221 c 0.671784,-0.02624 1.13974,-0.101157 1.236812,-0.198315 0.09178,-0.09187 0.173446,-0.540383 0.198315,-1.08778 0.05697,-1.254389 -0.08854,-1.395322 -1.502333,-1.454698 l -1.0135,-0.04266 v -1.074109 c 0,-1.417841 -0.122024,-1.557273 -1.361788,-1.557273 z m 12.525162,0.362438 c -2.413546,0 -3.998668,2.166382 -3.330786,4.552503 0.299097,1.068587 1.424828,2.091378 2.55592,2.32247 1.512126,0.308944 3.176141,-0.488272 3.884225,-1.860993 0.587511,-1.138978 0.360964,-2.84992 -0.508163,-3.837301 -0.71063,-0.807314 -1.527275,-1.176679 -2.601196,-1.176679 z"
       sodipodi:nodetypes="csssssssssssssssssssssccccccccssssssscsssssssssccssssscssscssssssssssssssssssccsssssssssssssssssssssssssssssssssccsscccssscsssccsssssssss" />
  </g>
</svg>
