<?xml version="1.0" encoding="UTF-8" standalone="no"?>
<svg
   xmlns:dc="http://purl.org/dc/elements/1.1/"
   xmlns:cc="http://creativecommons.org/ns#"
   xmlns:rdf="http://www.w3.org/1999/02/22-rdf-syntax-ns#"
   xmlns:svg="http://www.w3.org/2000/svg"
   xmlns="http://www.w3.org/2000/svg"
   xmlns:sodipodi="http://sodipodi.sourceforge.net/DTD/sodipodi-0.dtd"
   xmlns:inkscape="http://www.inkscape.org/namespaces/inkscape"
   width="200"
   height="200"
   viewBox="0 0 52.916666 52.916665"
   version="1.1"
   id="svg8"
   inkscape:version="1.0.2-2 (e86c870879, 2021-01-15)"
   sodipodi:docname="electricskull.svg">
  <defs
     id="defs2" />
  <sodipodi:namedview
     id="base"
     pagecolor="#ffffff"
     bordercolor="#666666"
     borderopacity="1.0"
     inkscape:pageopacity="0.0"
     inkscape:pageshadow="2"
     inkscape:zoom="1.08"
     inkscape:cx="400"
     inkscape:cy="560"
     inkscape:document-units="px"
     inkscape:current-layer="layer1"
     inkscape:document-rotation="0"
     showgrid="false"
     showguides="true"
     inkscape:guide-bbox="true"
     inkscape:window-width="3840"
     inkscape:window-height="2066"
     inkscape:window-x="-11"
     inkscape:window-y="-11"
     inkscape:window-maximized="1"
     units="px">
    <sodipodi:guide
       position="96.768902,77.170137"
       orientation="0,-1"
       id="guide849" />
    <sodipodi:guide
       position="70.065585,3.6747684"
       orientation="0,-1"
       id="guide851" />
    <sodipodi:guide
       position="1.9598765,2.9398148"
       orientation="1,0"
       id="guide853" />
    <sodipodi:guide
       position="226.36574,200.48997"
       orientation="1,0"
       id="guide855" />
    <sodipodi:guide
       position="77.170137,-24.988425"
       orientation="1,0"
       id="guide835" />
  </sodipodi:namedview>
  <metadata
     id="metadata5">
    <rdf:RDF>
      <cc:Work
         rdf:about="">
        <dc:format>image/svg+xml</dc:format>
        <dc:type
           rdf:resource="http://purl.org/dc/dcmitype/StillImage" />
        <dc:title></dc:title>
      </cc:Work>
    </rdf:RDF>
  </metadata>
  <g
     inkscape:label="Capa 1"
     inkscape:groupmode="layer"
     id="layer1">
    <path
       style="fill:#e6e6e6;stroke-width:0.999994"
       d="m 9.3501061,48.699924 c 0.017448,-0.05803 0.06469,-0.259835 0.1049805,-0.448446 0.04029,-0.18861 0.1575155,-0.699045 0.2605035,-1.134302 0.4298379,-1.816599 1.1812789,-5.080034 1.2148129,-5.275824 0.01988,-0.116067 0.09774,-0.394127 0.173027,-0.617907 l 0.13688,-0.406876 -0.360911,-0.806565 C 10.332237,38.787213 9.609663,37.42813 9.0806711,36.626796 8.9623559,36.447569 8.4204893,35.746925 7.8765221,35.069808 7.3325556,34.39269 6.8951816,33.832603 6.9045811,33.825168 c 0.00939,-0.0074 0.5888635,0.41617 1.2877042,0.941352 1.8250517,1.371536 2.0903927,1.573948 2.2372677,1.70668 0.169491,0.153168 0.202572,0.149569 0.242422,-0.02638 0.111251,-0.491199 0.06783,-0.529435 0.58878,0.518502 0.453379,0.912021 0.860028,1.571682 0.996454,1.616443 0.06069,0.01989 0.659944,-0.978183 1.199139,-1.997228 0.353554,-0.66819 0.792239,-1.736636 0.734303,-1.788442 -0.02261,-0.02023 -0.55154,-0.412055 -1.175407,-0.870761 -1.31782,-0.96895 -1.80461,-1.337602 -2.425373,-1.836759 -0.53214,-0.427899 -0.9479316,-0.65002 -1.2946865,-0.691648 -0.3848019,-0.04619 -1.2209516,-0.04533 -1.3004627,0.0013 -0.1018565,0.05979 0.074309,-0.134733 0.6181236,-0.68251 0.2627574,-0.264673 0.5713927,-0.588421 0.6858572,-0.71944 0.313817,-0.359195 1.1137594,-1.242656 1.5031784,-1.660111 0.189973,-0.203654 0.664682,-0.726395 1.054904,-1.161651 0.390224,-0.43526 0.970767,-1.065071 1.290099,-1.399584 0.319329,-0.334513 0.604867,-0.651756 0.634529,-0.704982 0.04666,-0.08373 0.100019,-0.02921 0.395687,0.404253 0.549027,0.804899 2.762292,3.388649 2.854128,3.331888 0.10049,-0.0621 0.0374,0.130597 -0.138252,0.4223 -0.10156,0.168656 -0.184653,0.317199 -0.184653,0.330094 0,0.0808 -1.217913,2.03446 -1.248939,2.003433 -0.0081,-0.0081 0.03172,-0.179567 0.08859,-0.380943 0.05687,-0.201376 0.1239,-0.556069 0.148965,-0.788206 l 0.04557,-0.422048 -0.190921,-0.184651 C 15.35335,29.594372 13.949916,28.361645 13.72029,28.177557 l -0.130901,-0.104942 -0.221125,0.239481 c -0.121618,0.131711 -0.387312,0.437604 -0.59043,0.679758 -0.20312,0.242148 -0.517692,0.604882 -0.699047,0.806074 -0.181358,0.201192 -0.32974,0.384993 -0.32974,0.408451 0,0.02344 0.236404,0.235947 0.525342,0.472196 0.288939,0.236251 0.556026,0.458535 0.593529,0.493966 0.0375,0.03543 0.222507,0.192998 0.411118,0.350144 0.188612,0.15715 0.378542,0.323421 0.422067,0.369488 0.132187,0.139918 0.825492,0.64404 1.69312,1.231123 0.909968,0.615728 1.359676,0.883472 1.483884,0.883472 0.05752,0 -0.0085,0.13828 -0.220469,0.461635 -0.166425,0.253901 -0.487417,0.853365 -0.713321,1.332146 -0.225901,0.47878 -0.54667,1.119794 -0.71282,1.424472 -0.342987,0.628959 -0.55998,1.031961 -1.122096,2.083951 -0.371816,0.695849 -0.605362,1.106626 -1.848924,3.251998 -0.732073,1.26296 -1.979796,3.86583 -2.5381564,5.294838 -0.2383859,0.610101 -0.4379074,1.062585 -0.3722145,0.844132 z M 33.859723,43.93849 c 0.0655,-0.108814 0.158293,-0.257197 0.206204,-0.329737 0.126966,-0.192232 0.488175,-0.863876 0.954764,-1.775322 0.554226,-1.082639 1.444133,-2.682785 1.912163,-3.438284 0.06614,-0.106764 0.148622,-0.26534 0.183297,-0.352392 0.03467,-0.08705 0.147694,-1.024827 0.251162,-2.083951 0.293932,-3.008745 0.354965,-3.739855 0.418407,-5.01203 0.01808,-0.362717 0.05529,-0.956247 0.08266,-1.31896 0.02738,-0.362712 0.06307,-0.837538 0.07932,-1.055164 l 0.02955,-0.395689 -0.29632,-0.394101 c -0.162974,-0.216756 -0.313624,-0.406686 -0.334778,-0.422066 -0.02114,-0.01537 -0.120721,-0.134797 -0.221268,-0.265379 l -0.182808,-0.237412 0.184172,0.136791 c 0.224691,0.166882 0.883494,0.542129 1.173031,0.668145 0.131155,0.05708 0.162552,0.04733 0.334845,-0.103939 0.104564,-0.09181 0.310974,-0.346443 0.458685,-0.565858 0.147711,-0.219409 0.33844,-0.493894 0.423839,-0.609961 l 0.155271,-0.211035 -0.03323,0.290169 c -0.06482,0.565776 -0.184612,2.467697 -0.219102,3.478513 -0.01924,0.563889 -0.04317,1.067784 -0.05318,1.119766 -0.01001,0.05198 -0.03227,0.611489 -0.04947,1.243356 -0.08366,3.074161 -0.08213,3.039373 -0.183334,4.182438 -0.02184,0.246646 -0.03191,0.457874 -0.02239,0.469396 0.03323,0.04021 1.387019,-0.442886 2.129706,-0.759972 0.246644,-0.105303 0.49917,-0.21197 0.561174,-0.237034 0.153825,-0.06219 0.687458,-0.619987 1.851149,-1.934988 0.312683,-0.35334 0.584726,-0.644173 0.604535,-0.646288 0.01979,-0.0021 -0.07239,0.192014 -0.204905,0.431404 -0.348516,0.629637 -0.973709,1.93399 -1.220131,2.545587 -0.518041,1.285728 -1.077803,2.64694 -1.180198,2.86998 -0.0613,0.133518 -0.167236,0.373334 -0.235422,0.532926 l -0.123976,0.290171 0.03294,-0.645935 c 0.05015,-0.98324 -0.0364,-1.047847 -1.044199,-0.779453 -0.901734,0.240144 -2.127345,0.920393 -3.050596,1.693165 -0.816207,0.68318 -1.90743,1.872721 -3.081686,3.359353 -0.20055,0.253898 -0.374609,0.461634 -0.386801,0.461634 -0.01219,0 0.03142,-0.08903 0.09692,-0.197844 z M 15.970278,41.732732 c 4.06e-4,-0.02731 0.03708,-0.168361 0.0817,-0.313446 0.14004,-0.455348 0.552735,-2.069872 0.788914,-3.08636 0.185616,-0.798862 0.232839,-1.110095 0.260171,-1.714641 0.01837,-0.406239 0.04377,-0.964156 0.05646,-1.239821 0.01268,-0.275662 0.03568,-0.928542 0.0511,-1.450853 0.01542,-0.522303 0.03939,-1.23454 0.05327,-1.582747 0.01388,-0.348204 0.03819,-1.119791 0.05402,-1.714641 0.01584,-0.594848 0.04248,-1.26248 0.05922,-1.483625 0.02414,-0.31878 0.01147,-0.442062 -0.06116,-0.5951 -0.08012,-0.168834 -0.08208,-0.204393 -0.01568,-0.283777 0.13014,-0.155594 0.695756,-0.818863 0.841114,-0.986333 1.812182,-2.087858 2.138635,-2.439771 1.871523,-2.017466 -0.157276,0.248656 -0.558611,1.352902 -0.65606,1.805114 -0.159085,0.738226 -0.32531,2.285393 -0.395147,3.677869 -0.01262,0.251577 -0.0031,0.291332 0.05786,0.240772 0.204056,-0.169349 2.39962,-3.26409 2.836225,-3.997775 0.230356,-0.387105 0.877044,-1.275692 0.906773,-1.245964 0.01071,0.01071 -0.0168,0.09955 -0.0611,0.197453 -0.153691,0.339547 -0.609133,1.627844 -0.664024,1.878304 -0.03035,0.138463 -0.06806,0.294195 -0.08381,0.346073 -0.02149,0.07079 0.06125,0.0392 0.331675,-0.126627 0.395223,-0.242362 2.443782,-1.260274 2.536312,-1.260274 0.05419,0 1.045354,-1.068083 1.550872,-1.671217 0.125904,-0.150217 0.235715,-0.266322 0.244023,-0.258013 0.0083,0.0083 -0.183993,0.427979 -0.427343,0.9326 -0.729822,1.513399 -1.142958,2.822919 -1.271492,4.030231 -0.01545,0.145087 -0.03027,1.531719 -0.03295,3.081407 l -0.0049,2.817615 0.517394,0.519346 c 0.521262,0.523222 0.66907,0.607095 0.73024,0.414357 0.01833,-0.05774 0.27752,-0.333022 0.575981,-0.611732 l 0.542668,-0.506749 0.03644,-1.063339 c 0.02004,-0.584838 0.04553,-1.170177 0.05665,-1.300754 0.01111,-0.130577 0.03543,-0.688495 0.05403,-1.239818 0.0186,-0.551326 0.05566,-1.275434 0.08233,-1.609127 0.02667,-0.333697 0.04887,-0.622706 0.04933,-0.642244 5.4e-4,-0.01954 -0.06103,-0.109041 -0.136644,-0.198902 -0.09229,-0.109685 -0.121518,-0.184705 -0.08893,-0.228271 0.0267,-0.03569 0.254326,-0.317952 0.505826,-0.627253 0.537724,-0.661311 1.079476,-1.434971 1.523924,-2.176282 0.175549,-0.292802 0.304611,-0.473016 0.286805,-0.400472 -0.15616,0.636155 -0.437406,3.341567 -0.509918,4.905088 -0.02763,0.595636 -0.07371,1.545933 -0.102406,2.111763 -0.0287,0.565835 -0.04426,1.533593 -0.03457,2.150573 l 0.01762,1.121783 -0.37431,0.299657 c -1.198365,0.959353 -1.866569,1.726349 -2.343238,2.689681 -0.171697,0.346995 -0.326058,0.497774 -0.326058,0.318493 0,-0.09013 -0.570146,-0.802589 -1.086223,-1.357346 -0.44635,-0.479817 -1.331406,-1.488875 -1.693507,-1.930792 l -0.220526,-0.269131 0.07443,-0.258449 c 0.143041,-0.496644 0.172523,-1.067213 0.178393,-3.452242 l 0.0059,-2.402419 -0.183371,-0.177731 -0.183374,-0.177729 0.10009,-0.136904 c 0.05505,-0.0753 0.257965,-0.303088 0.450924,-0.506207 0.19296,-0.203122 0.428216,-0.464273 0.522792,-0.580343 0.217802,-0.267299 0.727943,-1.139454 0.689168,-1.178227 -0.04716,-0.04716 -1.533313,1.443062 -2.14276,2.148621 -0.513019,0.593926 -2.081775,2.526948 -2.171849,2.676152 -0.01958,0.03245 0.24486,0.56662 0.58765,1.187061 1.154644,2.089873 1.686981,3.041987 1.815011,3.246256 0.07005,0.111751 0.383269,0.654268 0.696058,1.205591 0.938839,1.654801 1.388523,2.413586 1.995719,3.367516 0.200015,0.31423 0.355059,0.579934 0.344545,0.590448 -0.01052,0.01052 -0.125363,-0.08192 -0.255217,-0.20541 -0.129808,-0.123494 -0.378499,-0.351053 -0.552602,-0.505693 -0.174101,-0.154634 -0.458995,-0.416059 -0.633098,-0.580933 -0.464832,-0.4402 -1.221453,-1.063049 -2.048629,-1.686427 l -0.729667,-0.549897 -0.266002,-0.531352 c -0.146302,-0.292244 -0.426108,-0.804377 -0.621792,-1.138071 -0.195685,-0.333696 -0.527492,-0.915354 -0.737348,-1.292578 -0.466037,-0.837708 -0.911395,-1.556161 -0.964711,-1.55628 -0.03888,-1.03e-4 -0.05529,0.563103 -0.06237,2.141711 -0.004,0.891474 0.0093,0.93103 0.345611,1.031804 0.112627,0.03374 0.204776,0.07272 0.204776,0.08661 0,0.0139 -0.149975,0.194122 -0.333277,0.400525 -0.413083,0.465137 -1.054948,1.314073 -1.384756,1.831494 -0.136838,0.214672 -0.40367,0.627728 -0.59296,0.917896 -0.329261,0.504733 -0.560596,0.872719 -0.943297,1.500507 -0.09625,0.15789 -0.17474,0.264724 -0.174427,0.237415 z m 14.244156,-2.272189 c 0,-0.01326 0.0491,-0.07653 0.109103,-0.140603 0.107125,-0.114393 0.297474,-0.392946 1.045915,-1.530606 0.303342,-0.461089 0.376405,-0.612266 0.382485,-0.791372 0.0041,-0.121773 0.01345,-0.304498 0.02076,-0.406058 0.0073,-0.101559 0.02832,-0.483846 0.04677,-0.84952 0.01846,-0.365679 0.04182,-0.709925 0.05194,-0.764995 0.01014,-0.05507 0.03363,-0.420635 0.05223,-0.812363 0.0186,-0.391732 0.04487,-0.878425 0.05838,-1.081545 0.0135,-0.203119 0.03765,-0.689815 0.05364,-1.081543 0.04386,-1.074241 0.129569,-2.545202 0.155244,-2.664297 0.01252,-0.05803 0.03818,-0.220862 0.05705,-0.361843 0.03247,-0.242678 0.02426,-0.266597 -0.153983,-0.449143 l -0.188273,-0.192813 1.50246,-1.486534 c 0.826353,-0.817598 1.434277,-1.387072 1.350941,-1.265505 -0.409797,0.597814 -0.714343,1.467688 -0.82201,2.347933 -0.101717,0.831571 -0.110331,0.988645 -0.158207,2.885141 -0.04848,1.920585 -0.08516,3.041751 -0.104408,3.191874 -0.01545,0.120382 -0.160169,2.172122 -0.161894,2.294985 -0.0011,0.07157 0.217546,0.04261 0.843395,-0.111739 1.437779,-0.354595 1.577104,-0.434333 2.245066,-1.284871 0.296891,-0.378038 0.560155,-0.687343 0.585027,-0.687343 0.05723,0 0.06525,-0.03441 -0.0921,0.395689 -0.345054,0.94319 -1.125844,3.587552 -1.131902,3.833524 -0.0021,0.08936 -0.03794,0.04654 -0.129693,-0.155407 -0.182787,-0.402308 -0.346643,-0.462254 -0.902212,-0.330067 -0.22875,0.05443 -0.653323,0.13746 -0.943492,0.184516 -0.290172,0.04705 -0.693771,0.141726 -0.896889,0.210377 -0.20312,0.06865 -0.582979,0.188595 -0.844133,0.266531 -0.261151,0.07794 -0.825006,0.303703 -1.253005,0.501702 -0.428003,0.197997 -0.778185,0.34915 -0.778185,0.335895 z m -2.215845,-0.0398 c 0,-0.016 0.201683,-0.308854 0.44818,-0.650782 0.499583,-0.692992 0.817254,-1.267675 0.941564,-1.703333 0.05746,-0.201349 0.08612,-0.556912 0.09359,-1.160684 0.0092,-0.744068 0.08707,-2.239535 0.229369,-4.405211 0.01909,-0.29017 0.05407,-0.883703 0.07779,-1.318959 l 0.04313,-0.791372 -0.204577,-0.223046 c -0.112516,-0.122675 -0.204575,-0.242372 -0.204575,-0.265997 0,-0.02361 0.109201,-0.148796 0.242667,-0.278158 0.780885,-0.756882 1.816896,-2.058819 2.35147,-2.955043 0.120244,-0.20159 0.22592,-0.366526 0.234841,-0.366526 0.0089,0 -0.03214,0.112772 -0.09123,0.250602 -0.16549,0.385976 -0.462625,1.260045 -0.57769,1.699343 -0.144124,0.550256 -0.246438,1.906732 -0.286669,3.800709 -0.01881,0.885022 -0.04186,1.69222 -0.05126,1.793782 -0.028,0.302925 -0.108141,3.266371 -0.09952,3.680104 0.0057,0.274095 0.03941,0.443009 0.118708,0.595154 0.0609,0.116842 0.110729,0.23076 0.110729,0.253153 0,0.02239 -0.124641,0.08398 -0.276978,0.136876 -0.564506,0.195991 -1.519639,0.75042 -2.229036,1.293904 -0.522376,0.400202 -0.870511,0.646344 -0.870511,0.615484 z m 23.081734,-7.167424 c -1.268898,-1.437181 -2.714246,-2.782248 -4.436957,-4.129115 -1.138654,-0.890238 -2.286844,-1.734116 -3.654847,-2.686173 -1.005366,-0.699689 -2.118283,-1.336203 -2.762659,-1.580067 -0.13753,-0.05204 -0.26345,-0.116305 -0.279823,-0.142791 -0.01637,-0.02649 0.04406,-0.155457 0.134288,-0.2866 0.265974,-0.386583 0.316378,-0.560178 0.317311,-1.092898 5.42e-4,-0.269341 0.02375,-0.762734 0.05174,-1.09643 0.05635,-0.6721 0.08911,-1.19612 0.132751,-2.123434 0.01602,-0.340904 0.06689,-1.053141 0.113007,-1.582747 0.04611,-0.529608 0.08688,-1.02032 0.09059,-1.090472 0.0055,-0.103575 -0.04464,-0.153156 -0.266647,-0.263792 l -0.27339,-0.136238 0.220633,-0.09783 c 0.121348,-0.0538 0.486211,-0.200238 0.810807,-0.325405 0.63596,-0.245229 1.726447,-0.778495 2.153254,-1.052977 0.145084,-0.09331 0.396131,-0.309765 0.55788,-0.48102 0.759292,-0.803917 1.22832,-1.316988 1.757586,-1.922633 0.522729,-0.598162 2.789447,-2.9961658 4.135731,-4.3752687 l 0.542275,-0.555493 -0.315782,0.501204 c -0.28942,0.459364 -0.859848,1.4225589 -1.390394,2.3477407 -0.116479,0.20312 -0.291367,0.49361 -0.388644,0.645536 -0.409255,0.639172 -1.024686,1.904858 -1.100608,2.263495 -0.101779,0.48079 -0.104801,1.508054 -0.0063,2.129382 0.04372,0.275663 0.117804,0.774228 0.164637,1.107923 0.114014,0.812414 0.250726,1.52999 0.291489,1.52999 0.01824,0 0.202154,-0.195866 0.408704,-0.435257 0.206546,-0.239389 0.627759,-0.684539 0.936026,-0.989215 l 0.560488,-0.553963 -0.389764,0.6331 c -0.367286,0.596582 -0.717243,1.132063 -1.199399,1.835232 -0.350158,0.510669 -0.946461,1.194745 -1.503105,1.724356 -0.290654,0.276538 -0.676843,0.649983 -0.858198,0.829879 -0.181356,0.179896 -0.329739,0.317169 -0.329739,0.305051 0,-0.01213 0.327261,-0.467941 0.727254,-1.01294 1.221134,-1.663841 1.383073,-1.900008 1.383073,-2.017083 0,-0.13272 -0.5148,-1.216051 -0.577868,-1.216051 -0.02369,0 -0.08557,0.06529 -0.137476,0.145085 -0.05191,0.0798 -0.202352,0.267981 -0.334314,0.418186 l -0.239935,0.273102 -0.181069,-0.484134 c -0.09959,-0.266275 -0.278529,-0.775211 -0.397648,-1.13097 l -0.216549,-0.646837 -0.157806,0.154593 c -0.139167,0.136331 -0.828906,0.540507 -2.004349,1.174518 -0.203116,0.109559 -0.409451,0.199822 -0.458519,0.200584 -0.04907,7.92e-4 -0.100348,0.0194 -0.113956,0.04142 -0.02488,0.04025 -0.06437,0.91786 -0.115231,2.560454 -0.01508,0.487215 -0.05116,1.128228 -0.08016,1.424472 -0.029,0.296247 -0.06692,0.824006 -0.08427,1.172799 l -0.03154,0.634168 0.389084,0.262721 c 0.213996,0.144498 0.409672,0.271565 0.434835,0.28237 0.02515,0.01081 0.499989,0.305028 1.055167,0.653827 1.948174,1.223969 2.569577,1.585125 2.623379,1.524686 0.120702,-0.135595 0.409689,-2.526883 0.421854,-3.490739 l 0.005,-0.395686 0.102283,0.31655 c 0.05625,0.174102 0.219033,0.72015 0.361733,1.213441 0.277049,0.957717 1.011229,3.210342 1.240832,3.807144 0.846406,2.200036 1.342535,3.304272 2.289525,5.095815 0.2109,0.398985 0.375603,0.724929 0.366005,0.72433 -0.0096,-5.43e-4 -0.231118,-0.243107 -0.492269,-0.538894 z M 1.9598765,31.949181 C 2.1427093,31.499418 2.4509178,30.751567 2.6447816,30.287294 3.2270752,28.892798 4.0142937,26.912918 4.3544265,25.987491 5.0134556,24.194419 5.2438798,23.34527 5.5498526,21.582178 5.6253876,21.14692 5.7893997,20.378524 5.9143206,19.87463 L 6.1414505,18.958456 6.0303563,18.739207 C 5.8839362,18.45024 5.6708303,18.189705 4.9568023,17.426723 4.2597883,16.681924 3.511278,15.815049 3.6242769,15.883486 c 0.043525,0.02636 0.2453251,0.168396 0.4484453,0.315632 0.2031201,0.147238 0.4642726,0.331919 0.5803413,0.410402 0.116068,0.07848 0.3992716,0.30017 0.6293412,0.492639 0.4660875,0.389914 0.9676823,0.737494 1.0072193,0.697955 0.057395,-0.0574 0.6359281,-3.056241 0.7919873,-4.105294 0.049645,-0.333696 0.123248,-0.769738 0.1635667,-0.968981 L 7.3184906,12.363577 6.992811,11.74981 C 6.8136861,11.412239 6.5168582,10.868849 6.3331893,10.542278 6.1495185,10.215706 5.8471026,9.6779912 5.6611469,9.3473532 5.4751939,9.0167192 5.1312882,8.4622353 4.8969136,8.1151713 4.662537,7.7681063 4.4548728,7.4392663 4.4354374,7.3844183 c -0.019442,-0.05485 0.8169091,0.746478 1.8585457,1.7807269 2.00145,1.9872578 3.6023507,3.5049828 4.2152459,3.9962458 0.203119,0.162809 0.547368,0.446703 0.764994,0.630876 0.217628,0.18417 0.489406,0.382912 0.603954,0.441643 l 0.208266,0.106788 0.123635,-0.151475 c 0.068,-0.08331 0.233505,-0.353275 0.367787,-0.599921 0.368765,-0.677329 0.664985,-1.150344 0.627744,-1.002406 -0.01826,0.07254 -0.151914,0.58617 -0.297002,1.141393 -0.270833,1.036428 -0.403642,1.701898 -0.551359,2.762719 -0.137623,0.988328 -0.115883,0.944523 -0.298722,0.601892 C 11.619982,16.271088 11.298105,15.963777 10.218307,15.335956 9.7128214,15.042054 9.2752467,14.80959 9.2459186,14.819364 9.161756,14.847424 8.9202304,15.668104 8.80054,16.332733 8.7404446,16.666427 8.6220403,17.221741 8.5374162,17.566762 l -0.1538601,0.627314 0.6671492,-0.03574 c 1.1808437,-0.06326 1.5543047,-0.08875 2.0499737,-0.139929 0.701036,-0.07237 0.689113,-0.07396 0.550798,0.07327 -0.06378,0.06789 -0.287527,0.240009 -0.497211,0.382486 -0.470303,0.319558 -1.3114833,0.96775 -1.5946856,1.228824 -0.4071705,0.375352 -0.424632,0.384326 -0.7743247,0.397847 -0.1834787,0.0071 -0.4420665,0.01685 -0.5746361,0.02169 l -0.2410384,0.0088 -0.1401134,0.817449 c -0.1103985,0.644072 -0.5428958,2.52056 -0.7023047,3.047093 -0.018967,0.06264 7.922e-4,0.09233 0.061541,0.09233 0.132664,0 0.7572375,-0.234017 1.167322,-0.437376 0.197679,-0.09803 0.6070782,-0.270887 0.9097747,-0.384133 0.5444755,-0.2037 0.5537833,-0.210101 0.8705122,-0.598585 0.176084,-0.215973 0.474469,-0.577803 0.663079,-0.804061 0.188611,-0.226261 0.399127,-0.484316 0.467813,-0.573458 0.06868,-0.08914 0.134788,-0.152175 0.146889,-0.140074 0.0121,0.0121 -0.133124,0.50421 -0.322727,1.093571 -0.189602,0.589362 -0.344782,1.097008 -0.344842,1.128102 -1.6e-4,0.08969 -0.558828,1.761998 -0.715053,2.140488 -0.077853,0.188612 -0.1759462,0.458043 -0.2179853,0.598735 -0.090532,0.302979 -0.1287915,0.305926 -0.073755,0.0057 0.045433,-0.247845 -0.036171,-0.59503 -0.1579004,-0.671816 -0.061376,-0.03872 -0.1900237,-0.0023 -0.492623,0.139395 -0.2252538,0.105488 -0.4204954,0.191795 -0.4338731,0.191795 -0.053857,0 -1.4880372,0.93406 -1.7388989,1.132515 -1.6656718,1.317731 -3.4611909,3.216643 -4.6339097,4.900749 -0.2921466,0.419539 -0.5590532,0.806544 -0.593129,0.860002 -0.034076,0.05347 0.087637,-0.270781 0.270472,-0.720545 z m 25.9365405,-4.6521 c -0.0017,-0.01965 0.02013,-0.209597 0.04884,-0.422071 0.08628,-0.638781 0.212511,-2.035023 0.242402,-2.6813 0.01542,-0.333695 0.06107,-0.832261 0.101411,-1.107922 0.102115,-0.697791 0.122393,-0.893782 0.161028,-1.55637 0.0186,-0.319187 0.05584,-0.853363 0.08273,-1.18706 0.0269,-0.333695 0.07043,-1.295215 0.09674,-2.13671 0.02632,-0.841493 0.07243,-1.708046 0.102493,-1.925675 0.09638,-0.697805 0.12869,-0.646834 -0.396361,-0.62527 -0.439659,0.01804 -0.458938,0.02424 -0.59921,0.192267 -0.07972,0.09549 -0.19409,0.332873 -0.254169,0.527529 -0.06008,0.194656 -0.181692,0.555719 -0.270262,0.802365 l -0.161032,0.448445 -0.003,-0.342928 c -0.0046,-0.516875 -0.02982,-0.679739 -0.441635,-2.848945 -0.06886,-0.362713 -0.122086,-0.66341 -0.118284,-0.668216 0.0038,-0.0048 1.979549,-0.01667 4.390552,-0.02638 l 4.383639,-0.01765 -1.323665,0.67736 c -1.419588,0.72645 -1.719347,0.899497 -1.719347,0.992557 0,0.116961 3.393522,-0.07814 4.292438,-0.246781 0.597825,-0.112155 0.603829,-0.109337 0.351102,0.164842 -0.209137,0.226886 -0.221394,0.256858 -0.188783,0.461634 0.04779,0.300076 0.339644,0.815427 0.773864,1.366466 0.200067,0.25389 0.363752,0.474708 0.363752,0.490706 0,0.016 -0.08678,0.06534 -0.192846,0.109667 -0.106064,0.04432 -0.301933,0.171925 -0.435256,0.283572 -0.453867,0.38008 -1.085718,0.872956 -1.440034,1.123306 -0.194423,0.137374 -0.365167,0.268655 -0.37943,0.291736 -0.01426,0.02308 0.233239,0.182979 0.550016,0.355325 l 0.575955,0.313357 0.0316,0.237414 c 0.154732,1.162662 0.379259,2.020991 1.02816,3.930489 0.391696,1.152636 0.68737,1.915743 0.825293,2.130016 0.103701,0.161107 0.07835,0.144976 -1.003759,-0.638681 -0.149559,-0.108311 -0.497473,-0.349096 -0.773132,-0.53508 -0.468798,-0.316282 -0.509303,-0.358133 -0.626427,-0.647203 -0.134134,-0.331038 -0.896111,-2.481505 -1.203103,-3.39541 -0.260194,-0.774597 -0.225183,-0.731853 -0.555605,-0.678308 -0.153536,0.02488 -0.433476,0.05556 -0.622088,0.06819 l -0.342925,0.02295 -0.03356,0.676088 c -0.01846,0.371847 -0.03626,0.9743 -0.03957,1.338781 l -0.006,0.662693 0.276982,0.06942 c 0.466764,0.116987 0.464192,0.123638 -0.178496,0.461815 -0.668357,0.351685 -2.320418,1.364913 -2.588059,1.587295 l -0.17288,0.14364 0.119935,-0.184653 c 0.345079,-0.531285 0.709514,-1.387381 0.823233,-1.933852 0.07838,-0.376623 0.162915,-1.167573 0.216245,-2.023017 0.01718,-0.275661 0.06487,-0.83358 0.105951,-1.239818 0.04109,-0.406239 0.08671,-0.904805 0.101385,-1.107923 0.05287,-0.731784 0.137956,-2.117912 0.152211,-2.479638 l 0.01455,-0.369307 -0.253282,-0.172867 c -0.269452,-0.1839 -0.289806,-0.217951 -0.189973,-0.317786 0.04924,-0.04924 -0.06013,-0.06331 -0.492153,-0.06331 h -0.555467 l -0.112929,0.778185 c -0.06211,0.428001 -0.126294,1.074948 -0.142625,1.437661 -0.03368,0.747885 -0.222807,3.059876 -0.264624,3.23487 -0.01515,0.0634 -0.06041,0.459527 -0.100557,0.880274 -0.04016,0.420747 -0.08972,0.806542 -0.110141,0.857321 -0.04575,0.113773 0.05248,0.119219 0.237957,0.01318 0.147409,-0.08427 0.369308,-0.103999 0.369308,-0.03284 0,0.02546 -0.0372,0.07716 -0.08266,0.114892 -0.04545,0.03773 -0.244283,0.343336 -0.441835,0.679127 -0.368202,0.625873 -1.870291,3.398086 -1.954403,3.606999 -0.02575,0.06394 -0.04832,0.100189 -0.05015,0.08053 z m 6.142991,-8.539875 c 0.999046,-0.731126 1.714644,-1.267701 1.714644,-1.285691 0,-0.0099 -0.124675,-0.114215 -0.27706,-0.231777 -0.273522,-0.211021 -0.286381,-0.21483 -1.008066,-0.298472 -0.402053,-0.0466 -0.757045,-0.08981 -0.788871,-0.09603 -0.03708,-0.0072 -0.08042,0.234994 -0.120685,0.674554 -0.03455,0.377221 -0.08906,0.887034 -0.121131,1.132918 -0.07513,0.576027 -0.07469,0.607564 0.0077,0.542619 0.03628,-0.02862 0.303365,-0.225769 0.593534,-0.438123 z m 7.099987,7.850196 c -1.326263,-1.031413 -1.674491,-1.314129 -2.601106,-2.111782 -0.398304,-0.342868 -0.745015,-0.660618 -0.770475,-0.70611 -0.03072,-0.0549 -0.0098,-0.156089 0.06214,-0.300892 0.09978,-0.20078 0.111616,-0.354908 0.148365,-1.932821 0.02196,-0.943052 0.04749,-2.640549 0.05671,-3.772213 l 0.01677,-2.057572 -0.204997,-0.153891 -0.204995,-0.153893 0.177234,-0.155381 c 0.09747,-0.08546 0.240307,-0.206139 0.317401,-0.268175 0.07709,-0.06203 0.209836,-0.243369 0.294985,-0.402962 0.08515,-0.159595 0.447723,-0.848089 0.805715,-1.529989 0.357991,-0.681902 0.717797,-1.358525 0.799563,-1.503612 0.08177,-0.145084 0.260851,-0.473534 0.397963,-0.729888 0.137115,-0.256355 0.257642,-0.441068 0.26784,-0.410475 0.01019,0.03059 -0.04116,0.287817 -0.114127,0.571613 -0.339703,1.321205 -0.578722,2.68433 -0.645545,3.681487 -0.01556,0.232138 -0.05165,0.544825 -0.08021,0.694862 -0.03111,0.163417 -0.05366,1.955564 -0.05623,4.469711 l -0.0043,4.196914 0.67128,1.096284 c 0.369204,0.602958 0.786231,1.268412 0.926728,1.478785 0.140496,0.210374 0.249979,0.3825 0.243288,0.3825 -0.0066,0 -0.233489,-0.172126 -0.504,-0.3825 z m -18.390286,0.05936 c 0.02071,-0.06892 0.09339,-0.30337 0.161526,-0.520999 0.167452,-0.534867 0.247996,-1.18994 0.203072,-1.65158 -0.03517,-0.361491 -0.326571,-1.153814 -0.82842,-2.252531 -0.149508,-0.327323 -0.43425,-1.084711 -0.644626,-1.714643 -0.328564,-0.983828 -0.374689,-1.641956 -0.151597,-2.163089 0.07453,-0.174102 0.213226,-0.50648 0.30821,-0.738615 0.09498,-0.232136 0.284771,-0.671349 0.421752,-0.976026 0.136978,-0.304679 0.31606,-0.733697 0.397957,-0.953373 0.0819,-0.219677 0.222008,-0.560639 0.311357,-0.757696 0.132356,-0.291908 0.179677,-0.351594 0.255419,-0.322176 0.222833,0.08655 0.717504,0.145144 1.28699,0.152452 0.736815,0.0095 0.729719,0.01379 1.101827,-0.673934 0.244766,-0.452376 0.257395,-0.466093 0.292316,-0.317563 0.02006,0.08538 0.09426,0.35704 0.164858,0.603683 0.255906,0.894014 0.534007,2.092099 0.569465,2.45326 0.03206,0.326597 0.135932,1.133335 0.213968,1.661884 0.02361,0.160033 5.42e-4,0.135411 -0.173411,-0.184654 -0.227157,-0.418046 -0.387072,-0.669115 -0.795093,-1.248316 l -0.284729,-0.404183 -0.666789,-0.0055 -0.666789,-0.0055 -0.369307,0.699856 c -0.203119,0.384921 -0.485811,0.959531 -0.628203,1.27691 -0.249965,0.557144 -0.256747,0.585086 -0.196602,0.809967 0.03426,0.128104 0.301136,0.723113 0.593049,1.322245 0.291916,0.59913 0.617797,1.272247 0.724184,1.495811 0.106387,0.223565 0.215333,0.407561 0.242105,0.408878 0.02678,0.0013 0.388763,-0.229085 0.804424,-0.512 1.601322,-1.089921 2.418419,-1.636109 2.431081,-1.625058 0.02556,0.02231 -0.440092,0.7268 -0.831735,1.258365 -0.617463,0.838074 -1.894168,2.346016 -2.821909,3.333016 -0.95901,1.020269 -1.345181,1.464401 -1.345181,1.547084 0,0.03143 -0.02628,0.07339 -0.05841,0.09325 -0.03997,0.02469 -0.04652,-0.0035 -0.02076,-0.08922 z m -7.251458,-0.31878 c -0.0016,-0.01936 0.04112,-0.138063 0.09475,-0.263792 0.158219,-0.370907 0.443304,-1.418947 0.794696,-2.921497 0.118471,-0.506579 0.290472,-1.759132 0.343822,-2.503788 0.03264,-0.455612 0.07361,-0.900816 0.109234,-1.187061 0.01083,-0.08705 0.04545,-0.45504 0.07692,-0.817753 0.03147,-0.362713 0.08219,-0.837537 0.112699,-1.055164 0.03051,-0.217628 0.07237,-0.630272 0.09302,-0.916986 l 0.03754,-0.521297 -0.291951,-0.215949 c -0.160572,-0.118774 -0.4284,-0.339898 -0.595173,-0.491387 -0.166771,-0.151492 -0.427925,-0.359642 -0.580342,-0.462556 -0.587187,-0.396487 -0.593251,-0.377082 0.105641,-0.338134 0.802594,0.04473 2.108349,0.08948 3.626869,0.124307 0.667392,0.01532 1.37083,0.04203 1.563199,0.05939 0.567544,0.05122 0.657541,-0.0018 1.111428,-0.65546 0.215868,-0.310847 0.458262,-0.679813 0.538655,-0.819923 0.08039,-0.140106 0.155988,-0.244923 0.167987,-0.232924 0.01201,0.01201 -0.05304,0.23347 -0.14453,0.492155 -0.09149,0.258687 -0.455944,1.336816 -0.8099,2.395844 -0.617175,1.846581 -0.645039,1.915781 -0.679821,1.688264 -0.01994,-0.130484 -0.11255,-0.39156 -0.205785,-0.58017 l -0.16952,-0.34293 -0.791373,-0.01426 c -0.435256,-0.0078 -0.8613,-0.0197 -0.946763,-0.02638 -0.138121,-0.01079 -0.159948,0.0084 -0.19637,0.172522 -0.05082,0.228998 -0.202201,1.403872 -0.202201,1.569272 v 0.121569 l 1.21322,-0.01447 c 1.401842,-0.01673 1.361253,-0.08338 0.352319,0.578575 -0.343162,0.225146 -0.729161,0.486513 -0.857779,0.580819 -0.128618,0.09431 -0.281888,0.171463 -0.340605,0.171463 -0.05871,0 -0.18758,0.03378 -0.286369,0.07504 -0.139518,0.05829 -0.191595,0.12013 -0.233266,0.27698 -0.0551,0.207376 -0.313487,2.289893 -0.290386,2.340375 0.0071,0.01546 0.186775,0.01073 0.399329,-0.01053 0.212556,-0.02125 0.726874,-0.07233 1.142933,-0.113514 l 0.756468,-0.07489 0.314723,-0.310284 c 0.173099,-0.170655 0.413427,-0.437682 0.534067,-0.593395 0.120636,-0.15571 0.227024,-0.260058 0.236416,-0.231882 0.04168,0.125047 -1.169528,4.168758 -1.282505,4.281736 -0.01741,0.01741 -0.01644,-0.02896 0.0021,-0.103006 0.04254,-0.169505 -0.142517,-0.678863 -0.32577,-0.896646 -0.07375,-0.08764 -0.201297,-0.194106 -0.283453,-0.23659 -0.211389,-0.109311 -0.783805,-0.09641 -1.309068,0.02951 -0.948209,0.22731 -2.295831,1.13667 -2.812832,1.898063 -0.04926,0.07254 -0.0908,0.116056 -0.09233,0.0967 z m -5.278592,-0.277517 c 0,-0.01443 0.144706,-0.329846 0.321567,-0.700903 0.613543,-1.287217 0.915191,-1.978523 0.998792,-2.288988 0.03361,-0.124808 0.116213,-0.60797 0.183571,-1.073695 0.06736,-0.465725 0.170015,-1.131666 0.228134,-1.479869 0.05811,-0.348205 0.144292,-0.882383 0.191506,-1.187062 0.106181,-0.685216 0.326414,-1.784259 0.428164,-2.136709 0.04189,-0.145084 0.147513,-0.513073 0.234725,-0.817752 0.141637,-0.494809 1.293355,-3.104955 1.372575,-3.110676 0.01569,-0.0012 0.01234,0.193804 -0.0074,0.433196 -0.0198,0.239389 -0.05124,0.720149 -0.06986,1.068354 -0.01863,0.348205 -0.0559,0.906123 -0.08282,1.239819 -0.02691,0.333696 -0.06336,0.844131 -0.08099,1.134302 -0.03366,0.553968 -0.07774,0.994529 -0.20857,2.08395 -0.04356,0.362713 -0.115844,0.979983 -0.160635,1.371713 -0.04479,0.391732 -0.129711,1.052877 -0.188708,1.469214 -0.059,0.416339 -0.09414,0.770103 -0.07811,0.786143 0.04049,0.04049 1.496312,-0.347605 1.702952,-0.453974 0.158272,-0.08147 0.719739,-0.774785 1.284233,-1.585806 0.173536,-0.249322 0.239389,-0.311809 0.250209,-0.237413 0.0269,0.185002 -0.289598,1.511484 -0.640911,2.686129 -0.190928,0.638375 -0.374498,1.267518 -0.407936,1.398094 l -0.06079,0.237411 -0.07253,-0.211033 c -0.174584,-0.507961 -0.246876,-0.537035 -0.784567,-0.31554 -0.174101,0.07171 -0.375901,0.130675 -0.448445,0.131012 -0.370802,0.0018 -1.948676,0.475411 -2.506015,0.752318 -0.174103,0.0865 -0.509819,0.282741 -0.746038,0.436088 -0.483746,0.314039 -0.652055,0.409977 -0.652055,0.371677 z"
       id="path847" />
  </g>
</svg>
