<?xml version="1.0" encoding="UTF-8" standalone="no"?>
<svg
   xmlns:dc="http://purl.org/dc/elements/1.1/"
   xmlns:cc="http://creativecommons.org/ns#"
   xmlns:rdf="http://www.w3.org/1999/02/22-rdf-syntax-ns#"
   xmlns:svg="http://www.w3.org/2000/svg"
   xmlns="http://www.w3.org/2000/svg"
   xmlns:sodipodi="http://sodipodi.sourceforge.net/DTD/sodipodi-0.dtd"
   xmlns:inkscape="http://www.inkscape.org/namespaces/inkscape"
   width="64mm"
   height="64mm"
   viewBox="0 0 64 64"
   version="1.1"
   id="svg912"
   inkscape:version="1.0.2-2 (e86c870879, 2021-01-15)"
   sodipodi:docname="GuitarIcon.svg">
  <defs
     id="defs906" />
  <sodipodi:namedview
     id="base"
     pagecolor="#ffffff"
     bordercolor="#666666"
     borderopacity="1.0"
     inkscape:pageopacity="0.0"
     inkscape:pageshadow="2"
     inkscape:zoom="1.23"
     inkscape:cx="116.71533"
     inkscape:cy="80.086325"
     inkscape:document-units="mm"
     inkscape:current-layer="layer1"
     inkscape:document-rotation="0"
     showgrid="false"
     inkscape:window-width="1617"
     inkscape:window-height="1228"
     inkscape:window-x="1750"
     inkscape:window-y="216"
     inkscape:window-maximized="0" />
  <metadata
     id="metadata909">
    <rdf:RDF>
      <cc:Work
         rdf:about="">
        <dc:format>image/svg+xml</dc:format>
        <dc:type
           rdf:resource="http://purl.org/dc/dcmitype/StillImage" />
        <dc:title></dc:title>
      </cc:Work>
    </rdf:RDF>
  </metadata>
  <g
     inkscape:label="Capa 1"
     inkscape:groupmode="layer"
     id="layer1">
    <path
       id="path847"
       style="fill:#000000;stroke-width:0.999999"
       d="m 36.277852,2.717953 c -0.540155,0.028572 -1.077521,0.2373408 -1.545011,0.6374928 l -0.597872,0.511875 -0.649824,-0.51422 C 32.661727,2.7015045 31.98798,2.6608492 31.536269,3.2351068 c -0.487249,0.619433 -0.391382,0.945748 0.530067,1.803301 l 0.841486,0.783365 -0.473719,0.688566 -0.473721,0.688564 -0.690031,-0.526841 c -1.123322,-0.857723 -2.149346,-0.572319 -2.149346,0.597872 0,0.451109 0.102687,0.602081 0.742573,1.089494 0.408551,0.311195 0.746828,0.614611 0.751372,0.674179 0.0046,0.05958 -0.202458,0.407591 -0.460509,0.773687 L 29.685129,10.472964 29.015931,9.9619688 c -0.793288,-0.605529 -1.278276,-0.644185 -1.780406,-0.142055 -0.589783,0.5897792 -0.488095,1.0805042 0.391831,1.8936982 l 0.760469,0.702946 -0.384781,0.567055 c -0.633762,0.933893 -0.434927,1.805612 0.649529,2.847004 l 0.618416,0.594056 v 9.662213 c 0,7.843837 -0.03663,9.662506 -0.195767,9.662506 -0.107798,0 -0.510349,-0.199505 -0.894608,-0.443192 -0.90641,-0.574829 -1.267024,-1.299075 -1.535038,-3.084455 -0.117273,-0.781176 -0.284023,-1.552994 -0.370695,-1.714951 -0.422444,-0.789334 -1.41322,-1.120192 -2.320754,-0.775145 -0.61444,0.233605 -1.592294,1.2118 -1.984391,1.985564 -1.088171,2.147409 -1.064373,4.286117 0.09304,8.390157 0.441515,1.565542 0.540626,3.314471 0.246838,4.357971 -0.12798,0.454585 -0.617773,1.806725 -1.088318,3.004911 -1.86543,4.750063 -1.844978,7.154133 0.08276,9.707418 1.367878,1.811734 4.735148,3.287783 8.342902,3.657081 0.743863,0.07615 2.265399,0.106478 3.38119,0.06751 4.883627,-0.170452 7.674216,-1.181579 9.505778,-3.444286 0.945236,-1.167744 1.340314,-2.227715 1.426436,-3.825853 0.09013,-1.672389 -0.257404,-3.130524 -1.549419,-6.497629 -0.543552,-1.416542 -1.023672,-2.884116 -1.066894,-3.261144 -0.06386,-0.55694 0.05663,-1.079942 0.64307,-2.789187 0.67937,-1.980131 0.721923,-2.196635 0.727603,-3.681736 0.0046,-1.190406 -0.06352,-1.762401 -0.277068,-2.329262 -0.557261,-1.479268 -1.349441,-2.178989 -2.467209,-2.178989 -1.155197,0 -2.053064,0.985675 -2.429349,2.66709 -0.24259,1.084001 -0.806476,1.690887 -1.571138,1.690887 H 35.432555 V 26.426183 c 0,-10.77863 0.0011,-10.828543 0.322856,-11.458471 0.316426,-0.620069 1.66467,-4.192903 2.875773,-7.6202922 0.675467,-1.911561 0.684753,-2.400025 0.06252,-3.323366 C 38.086556,3.1230968 37.178124,2.670318 36.277855,2.717953 Z m 0.144702,2.3066618 c 0.07548,-0.01079 0.151829,0.02618 0.260925,0.10595 0.24251,0.177332 0.150953,0.488181 -1.235951,4.197725 C 34.6237,11.531765 33.775916,13.660573 33.563803,14.059014 L 33.178431,14.78339 V 27.069544 39.355991 H 32.426764 31.675683 V 27.624564 c 0,-8.342658 -0.04857,-11.826146 -0.167886,-12.05957 -0.0923,-0.180534 -0.435025,-0.605881 -0.761356,-0.945088 l -0.593176,-0.616661 2.878414,-4.2672782 c 1.583189,-2.346954 2.993774,-4.386302 3.134351,-4.532026 0.106466,-0.110364 0.181034,-0.168618 0.256524,-0.17933 z M 24.117906,32.761209 c 0.113183,0.01306 0.21864,0.310946 0.368055,0.899305 0.151136,0.595141 0.438558,1.359069 0.63867,1.697931 0.752439,1.2741 2.100927,2.327723 3.407896,2.662688 l 0.738462,0.189309 v 1.181363 c 0,1.231185 0.2316,1.951761 0.682987,2.124981 0.133796,0.05135 1.27421,0.09333 2.534129,0.09333 2.200224,0 2.303663,-0.01375 2.617489,-0.347807 0.228039,-0.242727 0.326962,-0.537821 0.326962,-0.976787 0,-0.557604 0.03953,-0.62898 0.348392,-0.62898 0.79156,0 1.948819,-0.484675 2.607509,-1.091845 0.785455,-0.724001 1.062613,-1.203145 1.41059,-2.439619 l 0.253883,-0.90165 0.196646,0.676235 c 0.357434,1.229295 0.235185,2.296513 -0.529778,4.632408 -1.021377,3.11888 -0.996172,3.52692 0.442607,7.229337 1.214504,3.125292 1.484005,4.117142 1.493944,5.495022 0.0074,1.020867 -0.05157,1.316824 -0.39095,1.962967 -0.756703,1.440567 -2.044992,2.298694 -4.418732,2.942981 -0.988441,0.268286 -1.682437,0.329672 -4.119062,0.364829 -3.197492,0.04618 -4.063314,-0.04101 -6.053852,-0.609907 -1.675638,-0.478883 -2.383105,-0.842616 -3.168396,-1.628367 -1.86669,-1.867793 -1.819697,-3.777899 0.217493,-8.83541 1.365607,-3.39026 1.42091,-4.726957 0.363653,-8.773767 -0.603648,-2.310553 -0.733071,-4.037768 -0.382737,-5.109355 0.179955,-0.550401 0.300955,-0.822237 0.41414,-0.809196 z m 8.383995,10.35166 c -2.606289,0 -2.64858,0.0052 -3.01225,0.368645 -0.483341,0.483364 -0.503022,1.34746 -0.04197,1.838225 0.318398,0.33894 0.396875,0.347806 3.06978,0.347806 h 2.742811 l 0.311412,-0.395942 c 0.432388,-0.549692 0.407687,-1.325167 -0.05724,-1.790089 -0.36367,-0.36375 -0.406262,-0.368645 -3.012543,-0.368645 z m 0.02732,4.658664 c -2.419369,0 -2.646108,0.0234 -3.012249,0.311413 -0.31946,0.251285 -0.395943,0.437926 -0.395943,0.965926 0,0.527995 0.07648,0.714351 0.395943,0.965638 0.366141,0.288 0.59288,0.311701 3.012249,0.311701 2.577516,0 2.621869,-0.0056 2.985249,-0.368935 0.254666,-0.254666 0.368935,-0.535839 0.368935,-0.908404 0,-0.37257 -0.114263,-0.654027 -0.368935,-0.908693 -0.36338,-0.363176 -0.407733,-0.368646 -2.985249,-0.368646 z m 5.179203,3.31926 c -0.706763,0.03169 -1.374193,0.564652 -1.374193,1.319016 0,0.624595 0.325452,1.180461 0.804794,1.373899 0.439415,0.177338 0.578005,0.175128 1.130876,-0.01761 0.968352,-0.337566 1.184487,-1.738842 0.36747,-2.381509 -0.278378,-0.218975 -0.607687,-0.308219 -0.928947,-0.293798 z"
       sodipodi:nodetypes="sccssccccsssscccsccsccsssssssssssscsssssssssscscssssssccccccsscccsssssccsssssssccsssscssssssssscsscscsssssscscsssssss" />
  </g>
</svg>
