<?xml version="1.0" encoding="UTF-8" standalone="no"?>
<svg
   xmlns:dc="http://purl.org/dc/elements/1.1/"
   xmlns:cc="http://creativecommons.org/ns#"
   xmlns:rdf="http://www.w3.org/1999/02/22-rdf-syntax-ns#"
   xmlns:svg="http://www.w3.org/2000/svg"
   xmlns="http://www.w3.org/2000/svg"
   xmlns:sodipodi="http://sodipodi.sourceforge.net/DTD/sodipodi-0.dtd"
   xmlns:inkscape="http://www.inkscape.org/namespaces/inkscape"
   width="64mm"
   height="64mm"
   viewBox="0 0 64 64"
   version="1.1"
   id="svg912"
   inkscape:version="1.0.2-2 (e86c870879, 2021-01-15)"
   sodipodi:docname="HeadphoneiCON.svg">
  <defs
     id="defs906" />
  <sodipodi:namedview
     id="base"
     pagecolor="#ffffff"
     bordercolor="#666666"
     borderopacity="1.0"
     inkscape:pageopacity="0.0"
     inkscape:pageshadow="2"
     inkscape:zoom="1.88"
     inkscape:cx="116.71533"
     inkscape:cy="112.60665"
     inkscape:document-units="mm"
     inkscape:current-layer="layer1"
     inkscape:document-rotation="0"
     showgrid="false"
     inkscape:window-width="1617"
     inkscape:window-height="1228"
     inkscape:window-x="1750"
     inkscape:window-y="216"
     inkscape:window-maximized="0" />
  <metadata
     id="metadata909">
    <rdf:RDF>
      <cc:Work
         rdf:about="">
        <dc:format>image/svg+xml</dc:format>
        <dc:type
           rdf:resource="http://purl.org/dc/dcmitype/StillImage" />
        <dc:title></dc:title>
      </cc:Work>
    </rdf:RDF>
  </metadata>
  <g
     inkscape:label="Capa 1"
     inkscape:groupmode="layer"
     id="layer1">
    <path
       id="path847-1"
       style="fill:#000000;stroke-width:0.999998"
       d="m 33.209719,5.3516913 c -3.744453,0.0018 -4.764301,0.153021 -7.553025,1.121176 -6.629041,2.301381 -11.795552,7.5611177 -14.026874,14.2800877 -1.107419,3.334665 -1.319721,5.41786 -1.323255,12.987559 l -0.0024,5.328632 -0.3895523,0.732537 c -0.515312,0.96918 -0.503339,1.502918 0.1396933,6.098906 0.361796,2.585868 0.623821,3.961337 0.830841,4.362968 0.366242,0.710523 1.767842,1.869667 3.775601,3.122798 1.811416,1.130587 4.697089,2.625125 5.632052,2.916762 h 3e-4 c 0.915382,0.285359 1.81766,0.282779 3.578693,-0.01007 2.629978,-0.437307 3.865954,-1.37263 4.128633,-3.124323 0.101331,-0.675706 -0.359127,-3.963787 -2.046663,-14.613022 -0.75236,-4.74779 -0.907525,-5.216411 -2.032058,-6.143341 -0.959769,-0.791124 -1.685251,-0.901718 -3.781378,-0.576106 -2.491327,0.386995 -3.02529,0.571736 -4.105806,1.420639 l -0.937967,0.736801 0.08217,-4.037326 c 0.08671,-4.264316 0.207879,-5.18753 0.991223,-7.543592 0.89219,-2.683429 2.253636,-4.871046 4.327055,-6.953181 2.969883,-2.982392 6.645549,-4.735905 10.919898,-5.209637 3.657438,-0.4053587 7.883615,0.543685 11.142373,2.502256 5.212359,3.132722 8.229369,8.217526 8.724115,14.70281 0.157261,2.061557 0.216872,6.488452 0.08734,6.488452 -0.03834,0 -0.524735,-0.344663 -1.081006,-0.765705 -1.164173,-0.881159 -1.009345,-0.823574 -3.420136,-1.269392 -2.546386,-0.470894 -3.723457,-0.252791 -4.809126,0.8911 -0.841448,0.886577 -0.817355,0.771195 -2.610597,12.559056 -0.51835,3.407362 -0.942531,6.617734 -0.942531,7.133952 0,1.499391 0.563892,2.51843 1.721935,3.112451 0.656088,0.336542 2.613948,0.762967 4.074764,0.887449 1.358714,0.115783 2.64751,-0.289246 4.91534,-1.544509 3.601236,-1.993307 6.038541,-3.852008 6.441892,-4.912908 0.08557,-0.225064 0.434168,-2.296215 0.774533,-4.602478 0.662384,-4.488185 0.661147,-4.938148 -0.01366,-5.885874 -0.261878,-0.367767 -0.289087,-0.93683 -0.350594,-7.325076 C 55.997322,24.51225 55.946141,24.041726 54.810672,20.648416 52.564804,13.936736 47.32632,8.6773353 40.610936,6.3920673 38.004627,5.5051313 36.901819,5.3497723 33.209475,5.3515393 Z"
       sodipodi:nodetypes="cssccssssccssssscccsssssssssssssssssssscc" />
  </g>
</svg>
