<?xml version="1.0" encoding="UTF-8" standalone="no"?>
<svg
   xmlns:dc="http://purl.org/dc/elements/1.1/"
   xmlns:cc="http://creativecommons.org/ns#"
   xmlns:rdf="http://www.w3.org/1999/02/22-rdf-syntax-ns#"
   xmlns:svg="http://www.w3.org/2000/svg"
   xmlns="http://www.w3.org/2000/svg"
   xmlns:sodipodi="http://sodipodi.sourceforge.net/DTD/sodipodi-0.dtd"
   xmlns:inkscape="http://www.inkscape.org/namespaces/inkscape"
   width="64mm"
   height="64mm"
   viewBox="0 0 64 64"
   version="1.1"
   id="svg912"
   inkscape:version="1.0.2-2 (e86c870879, 2021-01-15)"
   sodipodi:docname="MicrophoneIcon.svg">
  <defs
     id="defs906" />
  <sodipodi:namedview
     id="base"
     pagecolor="#ffffff"
     bordercolor="#666666"
     borderopacity="1.0"
     inkscape:pageopacity="0.0"
     inkscape:pageshadow="2"
     inkscape:zoom="1.23"
     inkscape:cx="116.71533"
     inkscape:cy="80.086325"
     inkscape:document-units="mm"
     inkscape:current-layer="layer1"
     inkscape:document-rotation="0"
     showgrid="false"
     inkscape:window-width="1617"
     inkscape:window-height="1228"
     inkscape:window-x="1750"
     inkscape:window-y="216"
     inkscape:window-maximized="0" />
  <metadata
     id="metadata909">
    <rdf:RDF>
      <cc:Work
         rdf:about="">
        <dc:format>image/svg+xml</dc:format>
        <dc:type
           rdf:resource="http://purl.org/dc/dcmitype/StillImage" />
        <dc:title></dc:title>
      </cc:Work>
    </rdf:RDF>
  </metadata>
  <g
     inkscape:label="Capa 1"
     inkscape:groupmode="layer"
     id="layer1">
    <path
       id="path847-7"
       style="fill:#000000;stroke-width:1"
       d="m 30.555958,4.7214546 c -0.880259,-3.49e-4 -1.745984,0.0806 -2.288625,0.242484 -3.033954,0.905121 -5.452118,3.332772 -6.239648,6.2640334 -0.302002,1.124071 -0.412393,3.193987 -0.231089,4.333437 0.187448,1.178087 1.424581,5.119541 1.795174,5.719172 0.266315,0.430906 0.92108,1.05926 1.202349,1.153851 0.08775,0.02949 0.265428,2.864399 0.479404,7.64526 0.187042,4.179097 0.410004,9.155339 0.495301,11.05832 0.08529,1.902985 0.222746,3.671364 0.305558,3.929828 0.242319,0.756263 0.875406,1.090512 2.065484,1.090512 h 0.992726 l 0.03871,4.89579 0.03898,4.896052 0.443097,0.39566 v 2.62e-4 c 0.629492,0.562066 1.514674,0.561682 2.077412,-0.0011 l 0.396455,-0.396722 v -4.812532 c 0,-5.467986 -0.12593,-4.977412 1.280257,-4.977412 1.086942,0 1.699004,-0.367152 1.930596,-1.157559 0.09598,-0.327582 0.321403,-4.842943 0.575071,-11.522616 0.383609,-10.101526 0.43624,-10.994488 0.656165,-11.112386 0.131529,-0.07051 0.483645,-0.379332 0.782309,-0.686109 0.461917,-0.474461 0.631139,-0.829325 1.133974,-2.376338 1.037512,-3.192027 1.109912,-3.538892 1.11145,-5.344451 0.0015,-1.908175 -0.189298,-2.81344 -0.900766,-4.2706314 -1.110204,-2.27385 -3.279423,-4.050865 -5.764491,-4.722472 -0.600666,-0.162339 -1.49555,-0.243991 -2.375809,-0.244335 z m -0.02067,3.025349 c 0.536779,-5.13e-4 1.088348,0.07283 1.65525,0.220488 2.356851,0.613878 4.151974,2.6661984 4.369478,4.9954284 l 0.08427,0.902623 h -5.921897 -5.921907 v -0.596271 c 0,-1.52206 1.088317,-3.5393494 2.394631,-4.4381154 1.049076,-0.721786 2.15927,-1.082686 3.340177,-1.084153 z M 25.2245,16.986099 h 5.418912 c 3.113129,0 5.418651,0.05162 5.418651,0.121636 0,0.06704 -0.191232,0.647093 -0.425075,1.289006 l -0.425075,1.167369 -4.222133,0.01723 c -2.322129,0.0095 -4.364504,0.03195 -4.538553,0.04979 -0.174052,0.0179 -0.341571,-0.03559 -0.372341,-0.11899 -0.03077,-0.08339 -0.235479,-0.685842 -0.455019,-1.338827 z m 5.428451,5.834449 h 2.596037 l -0.09408,2.272722 c -0.05175,1.250001 -0.242967,5.688361 -0.425076,9.86313 -0.182109,4.174779 -0.331264,7.73142 -0.331264,7.903641 0,0.310075 -0.01543,0.313244 -1.685194,0.313244 h -1.685199 l -0.07367,-0.848033 c -0.04056,-0.466419 -0.107375,-1.611254 -0.148402,-2.544088 -0.04103,-0.932834 -0.226427,-5.023735 -0.411829,-9.090892 -0.185407,-4.067158 -0.337248,-7.50168 -0.337357,-7.632276 -1.79e-4,-0.217874 0.213894,-0.237448 2.596034,-0.237448 z"
       sodipodi:nodetypes="sssssssssscccccccssssssscsssscsscccssccssccccsccscssssccssss" />
  </g>
</svg>
