<?xml version="1.0" encoding="UTF-8" standalone="no"?>
<svg
   xmlns:dc="http://purl.org/dc/elements/1.1/"
   xmlns:cc="http://creativecommons.org/ns#"
   xmlns:rdf="http://www.w3.org/1999/02/22-rdf-syntax-ns#"
   xmlns:svg="http://www.w3.org/2000/svg"
   xmlns="http://www.w3.org/2000/svg"
   xmlns:sodipodi="http://sodipodi.sourceforge.net/DTD/sodipodi-0.dtd"
   xmlns:inkscape="http://www.inkscape.org/namespaces/inkscape"
   width="64mm"
   height="64mm"
   viewBox="0 0 64 64"
   version="1.1"
   id="svg912"
   inkscape:version="1.0.2-2 (e86c870879, 2021-01-15)"
   sodipodi:docname="PhathIcon.svg">
  <defs
     id="defs906" />
  <sodipodi:namedview
     id="base"
     pagecolor="#ffffff"
     bordercolor="#666666"
     borderopacity="1.0"
     inkscape:pageopacity="0.0"
     inkscape:pageshadow="2"
     inkscape:zoom="1.23"
     inkscape:cx="116.71533"
     inkscape:cy="80.086325"
     inkscape:document-units="mm"
     inkscape:current-layer="layer1"
     inkscape:document-rotation="0"
     showgrid="false"
     inkscape:window-width="1617"
     inkscape:window-height="1228"
     inkscape:window-x="1750"
     inkscape:window-y="216"
     inkscape:window-maximized="0" />
  <metadata
     id="metadata909">
    <rdf:RDF>
      <cc:Work
         rdf:about="">
        <dc:format>image/svg+xml</dc:format>
        <dc:type
           rdf:resource="http://purl.org/dc/dcmitype/StillImage" />
        <dc:title></dc:title>
      </cc:Work>
    </rdf:RDF>
  </metadata>
  <g
     inkscape:label="Capa 1"
     inkscape:groupmode="layer"
     id="layer1">
    <path
       id="path847-3"
       style="fill:#000000;stroke-width:0.999998"
       d="m 34.781625,2.5506504 c -1.378834,0.0026 -2.766423,0.270474 -4.070388,0.819307 -1.174519,0.494347 -2.669422,1.384537 -3.308422,1.970139 -0.728889,0.667977 -0.601024,1.021303 0.818119,2.263935 1.337197,1.170888 1.750893,1.262012 2.633488,0.578982 0.963788,-0.745872 1.615399,-1.077989 2.619818,-1.335309 2.65958,-0.681355 5.512566,0.676552 7.06273,3.3612946 0.241503,0.41827 0.510921,0.810725 0.598587,0.872185 0.307439,0.215523 0.727292,0.110988 2.08124,-0.518082 1.421966,-0.6606747 1.739586,-0.9727837 1.566428,-1.5388006 -0.163013,-0.532842 -1.957204,-2.872866 -2.83816,-3.701733 -1.930168,-1.816027 -4.531119,-2.776996 -7.16344,-2.771918 z m -9.525998,5.973097 c -0.547079,0.02742 -0.994094,0.591626 -1.708721,1.7544686 -0.486087,0.790963 -0.883768,1.545706 -0.883768,1.677232 0,0.419897 0.429407,0.874646 1.790116,1.895871 0.730183,0.548012 1.417712,0.996656 1.527808,0.996656 0.431574,0 0.805972,-0.349014 1.189448,-1.108352 0.220273,-0.436178 0.600863,-1.085341 0.845746,-1.442551 0.706097,-1.029982 0.584733,-1.416467 -0.827029,-2.6352677 -0.890459,-0.7687459 -1.450881,-1.1622509 -1.9336,-1.1380569 z m 9.500152,0.26617 c -0.379917,0.0093 -0.767796,0.07642 -1.158853,0.204976 -0.643231,0.211455 -1.048447,0.5017639 -1.885174,1.3501616 -1.323533,1.341996 -2.035505,2.61056 -1.816559,3.236826 0.242199,0.692786 0.994761,0.661532 2.672699,-0.111399 2.019638,-0.930338 2.587332,-0.76914 5.116363,1.453243 1.355673,1.191302 2.013804,1.115796 2.013804,-0.230819 0,-0.386354 -0.110568,-1.074333 -0.245378,-1.528698 C 38.626008,10.37796 36.807346,8.7396814 34.755779,8.7899174 Z M 45.02444,12.438476 c -0.387948,0.02 -0.911406,0.150248 -1.635939,0.357965 -1.647959,0.472453 -1.936525,0.754565 -1.782389,1.741396 0.0593,0.379638 0.15501,1.127639 0.212697,1.662379 0.08116,0.752298 0.183621,1.036176 0.453619,1.254804 0.191916,0.155403 0.392731,0.282076 0.446193,0.28162 0.395835,-0.0039 3.329426,-0.967773 3.548447,-1.165983 0.33356,-0.301857 0.341241,-0.660153 0.0499,-2.315625 -0.241267,-1.370928 -0.439041,-1.860553 -1.292531,-1.816556 z m -23.080798,2.409499 c -0.571373,0 -0.786893,0.388268 -1.287478,2.32008 -0.643788,2.484472 -0.639068,2.495058 1.474628,3.395162 2.438221,1.038295 2.76897,0.916371 3.261784,-1.202521 0.404509,-1.739206 0.399652,-2.154586 -0.02972,-2.463267 -1.212345,-0.871593 -3.177579,-2.049454 -3.419226,-2.049454 z m 12.366836,0.60839 c -0.315257,0 -1.542065,0.230855 -2.726166,0.513329 -1.184107,0.282471 -2.410058,0.559471 -2.72439,0.615519 -0.65801,0.117334 -0.867758,0.384507 -1.318377,1.679608 -0.528753,1.519658 -0.345402,2.514957 0.463128,2.514957 0.165375,0 1.373752,-0.307997 2.685173,-0.684439 1.311427,-0.376441 2.597422,-0.684439 2.858067,-0.684439 0.329474,0 0.863786,0.269298 1.752986,0.884067 0.703446,0.48635 1.748956,1.205011 2.323347,1.597024 1.714573,1.170178 2.134437,0.953155 2.297501,-1.188262 0.12498,-1.641298 -0.0011,-2.047012 -0.783064,-2.515551 -0.319799,-0.191619 -1.408163,-0.88448 -2.418405,-1.539988 -1.467109,-0.95194 -1.951972,-1.191825 -2.4098,-1.191825 z m 11.255811,3.670244 c -0.312234,7.47e-4 -0.72106,0.07213 -1.248566,0.188042 -0.621633,0.136593 -1.295417,0.248347 -1.497508,0.248347 -0.202097,0 -0.533128,0.153999 -0.735535,0.342219 -0.311647,0.289798 -0.407947,0.621181 -0.627697,2.164716 l -0.259336,1.822793 0.33152,0.268548 c 0.273937,0.221821 0.635608,0.268844 2.075894,0.268844 1.700513,0 1.754118,-0.01042 2.158777,-0.418268 0.378055,-0.381027 0.431896,-0.583863 0.604824,-2.276413 0.202022,-1.977236 0.134327,-2.61102 -0.802373,-2.608828 z m -12.591117,2.569913 c -0.519843,0.0064 -5.843057,1.582925 -6.119551,1.812397 -0.183713,0.152473 -0.237951,0.509008 -0.237951,1.558107 0,2.380763 0.157827,2.459346 3.137609,1.564346 1.244024,-0.373651 2.385937,-0.679676 2.537831,-0.679981 0.395088,-5.75e-4 0.704654,0.188076 2.517925,1.535236 0.915137,0.679889 1.768357,1.201324 1.965981,1.201629 0.518417,5.74e-4 0.9701,-0.551765 1.466609,-1.793686 0.340407,-0.851483 0.410632,-1.194445 0.302415,-1.47463 -0.08387,-0.21713 -0.973025,-0.945157 -2.194125,-1.796355 -2.313436,-1.612641 -2.875295,-1.933237 -3.376743,-1.927063 z m -12.455364,0.50204 c -0.171813,-0.0075 -0.280461,0.03751 -0.420048,0.115855 -0.479982,0.269408 -0.609469,0.8467 -0.622058,2.771918 -0.01299,1.987648 0.137092,2.151017 2.258888,2.460594 1.931858,0.28187 2.353607,0.270528 2.792712,-0.07486 0.379687,-0.298672 0.384981,-0.331083 0.30568,-1.863197 -0.06376,-1.231911 -0.140208,-1.624829 -0.3645,-1.871809 -0.156136,-0.171936 -1.11352,-0.612807 -2.127585,-0.979723 -1.074528,-0.388792 -1.53673,-0.546349 -1.823089,-0.55878 z m 22.14415,4.208823 c -1.458056,0 -1.90699,0.05134 -2.192044,0.251023 -0.338309,0.236961 -1.534345,2.569747 -1.534345,2.992635 0,0.479902 0.455741,0.736334 2.05332,1.155284 1.971425,0.516997 2.310154,0.518636 2.68369,0.0119 0.351565,-0.476941 1.498991,-3.274545 1.498991,-3.654795 0,-0.587946 -0.558301,-0.756029 -2.509612,-0.756029 z M 31.81691,28.232854 c -0.88264,5.75e-4 -4.000284,1.015829 -4.427759,1.441655 l -0.368955,0.36777 0.279835,1.525428 c 0.382119,2.082603 0.492411,2.17957 2.550013,2.239872 0.857151,0.02512 1.900919,0.143651 2.319185,0.263503 1.649695,0.472676 2.097888,0.290774 2.943623,-1.19569 1.01399,-1.782189 0.996738,-1.827125 -1.394724,-3.63133 -1.090054,-0.822385 -1.445586,-1.011513 -1.901218,-1.011208 z m -10.908838,1.223611 c -1.463861,-0.02776 -1.350017,0.497941 -1.0727,2.749339 0.288124,2.339104 0.415386,2.759957 0.90575,2.99739 0.433275,0.209799 0.244688,0.224878 2.43772,-0.19636 1.071349,-0.205781 2.051009,-0.45965 2.176897,-0.564124 0.471589,-0.39138 0.523533,-0.89404 0.259042,-2.505749 -0.336728,-2.051946 -0.372933,-2.083206 -2.66468,-2.311764 -0.890999,-0.08886 -1.554073,-0.159476 -2.042029,-0.168732 z m 17.105329,2.275519 c -0.353451,-0.0017 -0.777707,0.53441 -1.510873,1.910134 -0.496585,0.931763 -0.629785,1.323441 -0.553438,1.627621 0.09924,0.395415 2.137881,2.126045 3.088591,2.621899 0.515031,0.268619 0.373214,0.258202 0.922984,0.06655 0.394852,-0.137644 0.584756,-0.424399 1.333231,-2.015292 0.902565,-1.918412 1.023434,-2.420929 0.666615,-2.772218 -0.226867,-0.223355 -3.555363,-1.436389 -3.94711,-1.438689 z m 1.090526,10.800409 c -0.55169,0.0017 -1.618889,0.067 -2.371773,0.145565 -1.190867,0.124279 -1.413377,0.194118 -1.711095,0.537986 -0.296977,0.343017 -0.342218,0.565866 -0.342218,1.68644 0,1.188643 0.03133,1.322958 0.396283,1.687923 l 0.396582,0.396283 2.3792,-0.09625 c 3.036859,-0.122904 2.995952,-0.08962 2.844403,-2.305819 -0.131723,-1.926317 -0.232035,-2.055579 -1.591382,-2.05213 z M 23.000901,43.29021 c -2.593759,0 -2.619225,0.02064 -2.619225,2.145106 0,1.449427 0.133717,2.045519 0.516894,2.301365 0.214341,0.143116 1.785292,0.131539 3.428135,-0.02524 1.125828,-0.107447 1.326626,-0.172883 1.635048,-0.53145 0.304122,-0.353565 0.351726,-0.573253 0.351726,-1.627028 0,-0.670059 -0.07418,-1.356243 -0.164576,-1.525136 -0.299926,-0.56041 -1.055989,-0.73761 -3.148002,-0.73761 z m 8.867701,0.156694 c -0.303266,0.0046 -0.697923,0.0184 -1.220347,0.03714 -1.17115,0.04196 -2.239975,0.121829 -2.375038,0.177648 -0.451279,0.186535 -0.581605,0.769348 -0.483322,2.162042 0.07974,1.129869 0.149239,1.38771 0.457184,1.695649 0.331893,0.331917 0.451049,0.355566 1.382243,0.277156 0.560405,-0.0472 1.54341,-0.127245 2.184616,-0.178234 1.619136,-0.128786 1.738821,-0.2788 1.676639,-2.100849 -0.0403,-1.180244 -0.09782,-1.445184 -0.380245,-1.750307 -0.244935,-0.264623 -0.331933,-0.33379 -1.24173,-0.320235 z m 7.431093,5.017735 c -0.310268,5.75e-4 -0.708167,0.0089 -1.225992,0.0211 -2.199948,0.05185 -2.205616,0.05277 -2.571696,0.478574 -0.288584,0.335671 -0.366874,0.599794 -0.366874,1.237868 0,1.161021 0.220199,1.34927 2.205415,1.884881 2.709593,0.731057 3.219164,0.631411 3.433183,-0.672261 0.231776,-1.411825 0.171951,-2.31389 -0.17705,-2.662891 -0.224172,-0.22416 -0.366184,-0.289326 -1.296986,-0.287262 z m -14.039313,0.77712 c -0.229299,-0.0052 -0.542113,0.0123 -0.999924,0.04518 -3.641608,0.261497 -3.660929,0.270815 -3.515473,1.675156 0.162995,1.573699 0.43216,2.414346 0.83713,2.615661 0.416886,0.207225 0.29896,0.237565 2.601997,-0.669587 2.161019,-0.851219 2.33447,-1.022831 2.247598,-2.223834 -0.0522,-0.721865 -0.137661,-0.957987 -0.433419,-1.197472 -0.20523,-0.16618 -0.355745,-0.236755 -0.737909,-0.245079 z m 7.710329,0.303605 c -0.240301,0.004 -0.569493,0.106193 -1.098545,0.308646 -0.811531,0.310555 -0.924594,0.317109 -2.15907,0.125066 -1.459171,-0.226988 -1.772887,-0.139862 -1.851016,0.514819 -0.07932,0.664603 0.402825,2.034447 0.925657,2.629918 0.26893,0.306295 0.763215,0.684718 1.098546,0.840992 1.675793,0.780972 3.551287,-0.677342 3.820854,-2.970951 0.08379,-0.712903 0.05369,-0.917247 -0.171405,-1.165982 -0.17325,-0.191439 -0.324713,-0.286279 -0.565021,-0.282508 z m 2.270179,3.660142 c -0.196492,0.02834 -0.539814,0.368075 -0.862682,0.853766 -1.179348,1.774088 -3.129653,2.426717 -5.075658,1.698621 -0.607802,-0.227408 -1.045101,-0.547223 -1.663865,-1.216782 -0.461656,-0.499562 -0.941443,-0.90813 -1.06617,-0.90813 -0.124721,0 -1.090607,0.407706 -2.14659,0.906049 -2.168388,1.023331 -2.366955,1.245801 -1.906863,2.135903 1.008115,1.950334 3.812008,3.949531 6.298085,4.490741 3.879858,0.844631 8.134827,-1.082576 10.310545,-4.670171 0.623622,-1.028309 0.714777,-1.623441 0.304197,-1.985877 -0.342063,-0.301972 -3.761553,-1.366003 -4.190999,-1.30412 z"
       sodipodi:nodetypes="ssssssssssssssssssssssssssssssssssscsssssssssssssssssssssssssssscccsssssssscscsssssssssssssssssssssscccssssssssssssscssssssccssscccscsssssssssscsssssssssscsssssssscssssssscssssssscsssssssssss" />
  </g>
</svg>
